<svg fill="none" height="80" width="128" viewBox="0 0 9599 1799" xmlns="http://www.w3.org/2000/svg">
    <path clip-rule="evenodd"
        d="M2071.46 1036.11C2071.46 1337.14 1943 1609.28 1736.99 1798.56H1488.41C1493.73 1774.24 1480.81 1757.51 1464.09 1746.11C1429.12 1721.79 1407.08 1681.5 1412.4 1639.69C1426.08 1529.46 1492.97 1388.83 1736.99 1259.6C1878.97 1183.71 1921.27 1038.55 1937.57 982.613C1940.21 973.559 1942.17 966.843 1943.76 963.136C1960.48 919.046 1955.92 881.798 1920.95 846.07C1857.86 781.455 1789.44 722.922 1706.58 684.914C1590.28 630.182 1471.69 633.222 1353.86 677.312C1337.41 683.407 1337.08 674.353 1336.81 666.997C1336.74 665.179 1336.68 663.465 1336.38 662.109C1320.42 584.571 1293.81 510.075 1255.8 440.139C1179.02 301.788 1071.84 199.925 912.204 165.717C895.271 161.893 877.944 160.032 860.507 158.159C853.679 157.426 846.834 156.691 839.988 155.835C828.586 154.315 822.504 157.355 825.545 171.038C846.83 272.901 876.476 370.963 941.091 454.582C968.972 491.042 1006.27 516.073 1043.49 541.055L1043.61 541.139L1043.64 541.159L1043.67 541.18L1043.7 541.2C1045.12 542.153 1046.54 543.105 1047.96 544.058C1048.83 544.639 1049.69 545.221 1050.56 545.802C1062.85 554.297 1075.34 562.594 1087.86 570.907C1117.9 590.862 1148.08 610.907 1175.98 633.982C1213.23 665.909 1243.64 703.158 1258.08 756.37C1255.94 754.225 1254.29 752.698 1252.98 751.49C1251.05 749.7 1249.87 748.609 1248.96 747.247C1127.33 554.164 889.399 469.025 649.946 538.961C627.901 545.042 630.941 552.644 641.584 568.607C710.759 675.031 805.781 751.048 918.286 809.581C1001.9 852.911 1088.56 888.639 1182.82 900.802C1212.26 904.482 1211.53 919.431 1210.54 939.616C1210.09 948.62 1209.6 958.665 1211.71 969.217C1218.14 1006.75 1231.01 1026.12 1235.36 1032.69C1237.18 1035.43 1237.52 1035.94 1235.28 1034.59C1090.84 976.819 970.737 954.014 871.155 954.014C459.903 954.014 393.008 1346.26 396.049 1350.82C389.967 1348.54 291.145 1312.05 269.1 1410.88C246.295 1511.22 380.845 1576.59 380.845 1576.59C398.329 1458.01 504.753 1432.16 517.676 1429.12C507.033 1435.2 437.858 1475.49 416.573 1585.72C398.329 1683.02 475.106 1768.92 503.993 1798.56H333.715C128.469 1609.28 0 1337.14 0 1036.11C0 463.704 462.944 0 1035.35 0C1607.76 0 2071.46 463.704 2071.46 1036.11ZM1318.9 1798.56H1209.43C1214.75 1793.24 1218.55 1785.64 1220.07 1777.28C1229.2 1724.07 1183.59 1713.42 1183.59 1713.42H931.209C931.209 1713.42 1031.55 1708.86 1123.53 1670.85C1214.75 1632.09 1288.49 1564.43 1301.41 1546.19C1258.84 1646.53 1279.37 1730.91 1296.85 1773.48C1300.65 1784.12 1309.01 1793.24 1318.9 1798.56ZM9426.46 1428.44C9342.96 1428.44 9280.57 1408.74 9239.29 1369.33C9198.94 1328.99 9178.77 1271.76 9178.77 1197.64V892.245H9069V707.884H9178.77V488.34H9398.32V707.884H9558.75V892.245H9398.32V1142.75C9398.32 1170.9 9403.48 1191.54 9413.8 1204.67C9424.12 1217.81 9440.07 1224.38 9461.65 1224.38C9470.09 1224.38 9479.94 1222.5 9491.2 1218.75C9502.46 1214.05 9512.78 1208.43 9522.16 1201.86L9598.16 1362.29C9575.64 1381.06 9548.43 1397.01 9516.53 1410.14C9485.57 1422.34 9455.55 1428.44 9426.46 1428.44ZM8826.42 581.225C8851.75 605.619 8880.84 617.816 8913.68 617.816C8947.45 617.816 8976.54 605.619 9000.93 581.225C9025.33 555.893 9037.52 526.808 9037.52 493.97C9037.52 459.256 9025.33 430.171 9000.93 406.716C8976.54 382.322 8947.45 370.125 8913.68 370.125C8880.84 370.125 8851.75 382.322 8826.42 406.716C8802.03 430.171 8789.83 459.256 8789.83 493.97C8789.83 526.808 8802.03 555.893 8826.42 581.225ZM8003.68 1411.55V426.418H8223.23V792.056C8238.39 769.83 8256.21 751.155 8276.71 736.031C8316.11 706.008 8364.9 690.997 8423.07 690.997C8488.74 690.997 8545.5 706.008 8593.35 736.031C8641.2 765.116 8677.79 807.336 8703.13 862.691C8728.46 917.108 8741.12 982.784 8741.12 1059.72C8741.12 1135.71 8728.46 1201.39 8703.13 1256.74C8677.79 1312.1 8641.2 1354.79 8593.35 1384.81C8545.5 1413.9 8488.74 1428.44 8423.07 1428.44C8364.9 1428.44 8316.11 1413.9 8276.71 1384.81C8254.58 1367.96 8235.56 1347.11 8219.65 1322.26L8211.97 1411.55H8003.68ZM8241.52 1146.97C8229.32 1121.64 8223.23 1092.56 8223.23 1059.72C8223.23 1027.82 8229.32 999.203 8241.52 973.871C8253.72 948.539 8270.61 928.836 8292.19 914.763C8314.7 900.689 8340.03 893.653 8368.18 893.653C8396.33 893.653 8421.19 900.689 8442.77 914.763C8465.29 928.836 8482.64 948.539 8494.84 973.871C8507.04 998.265 8513.14 1026.88 8513.14 1059.72C8513.14 1092.56 8506.57 1121.64 8493.43 1146.97C8480.3 1171.37 8462.94 1190.6 8441.36 1204.67C8419.78 1218.75 8394.92 1225.78 8366.77 1225.78C8338.63 1225.78 8313.76 1218.75 8292.19 1204.67C8270.61 1190.6 8253.72 1171.37 8241.52 1146.97ZM7216.12 426.418V1411.55H7424.41L7432.09 1322.26C7448 1347.11 7467.02 1367.96 7489.15 1384.81C7528.55 1413.9 7577.34 1428.44 7635.51 1428.44C7701.19 1428.44 7757.95 1413.9 7805.8 1384.81C7853.65 1354.79 7890.24 1312.1 7915.57 1256.74C7940.9 1201.39 7953.57 1135.71 7953.57 1059.72C7953.57 982.784 7940.9 917.108 7915.57 862.691C7890.24 807.336 7853.65 765.116 7805.8 736.031C7757.95 706.008 7701.19 690.997 7635.51 690.997C7577.34 690.997 7528.55 706.008 7489.15 736.031C7468.66 751.155 7450.83 769.83 7435.67 792.056V426.418H7216.12ZM7653.81 1204.67C7632.23 1218.75 7607.36 1225.78 7579.22 1225.78C7551.07 1225.78 7526.21 1218.75 7504.63 1204.67C7483.05 1190.6 7466.16 1171.37 7453.96 1146.97C7441.77 1121.64 7435.67 1092.56 7435.67 1059.72C7435.67 1027.82 7441.77 999.203 7453.96 973.871C7466.16 948.539 7483.05 928.836 7504.63 914.763C7527.15 900.689 7552.48 893.653 7580.62 893.653C7608.77 893.653 7633.63 900.689 7655.21 914.763C7677.73 928.836 7695.09 948.539 7707.28 973.871C7719.48 998.265 7725.58 1026.88 7725.58 1059.72C7725.58 1092.56 7719.01 1121.64 7705.88 1146.97C7692.74 1171.37 7675.38 1190.6 7653.81 1204.67ZM6930.38 1411.55L6927.08 1340.21C6924.52 1343.92 6921.87 1347.52 6919.12 1351.04C6879.72 1402.64 6819.2 1428.44 6737.58 1428.44C6655.01 1428.44 6590.74 1410.14 6544.77 1373.55C6498.8 1336.02 6475.81 1282.55 6475.81 1213.12C6475.81 1139 6499.74 1083.64 6547.59 1047.05C6595.44 1010.46 6662.52 992.165 6748.84 992.165H6918.94C6917.49 981.798 6915.67 971.947 6913.49 962.612C6907.86 934.465 6896.14 912.886 6878.31 897.874C6861.42 881.924 6836.56 873.949 6803.72 873.949C6777.45 873.949 6754.46 880.048 6734.76 892.245C6715.06 904.442 6698.17 920.861 6684.1 941.502L6491.29 878.172C6508.18 843.457 6530.23 812.027 6557.44 783.88C6585.58 755.733 6619.83 733.216 6660.17 716.328C6700.52 699.44 6747.43 690.996 6800.91 690.996C6874.09 690.996 6936.01 704.6 6986.67 731.809C7037.34 759.017 7075.34 797.015 7100.67 845.803C7126 894.59 7138.67 952.291 7138.67 1018.9L7135.85 1411.55H6930.38ZM6830.46 1134.31H6923.34C6923.34 1156.82 6917.25 1177.93 6905.05 1197.64C6893.79 1217.34 6877.84 1233.29 6857.2 1245.49C6837.5 1256.74 6814.04 1262.37 6786.83 1262.37C6759.62 1262.37 6738.05 1257.68 6722.1 1248.3C6707.08 1237.98 6699.58 1224.38 6699.58 1207.49C6699.58 1184.03 6709.9 1166.21 6730.54 1154.01C6751.18 1140.87 6784.49 1134.31 6830.46 1134.31ZM8803.91 707.885V1411.55H9023.45V707.885H8803.91ZM5671.81 426.418V1411.55H5898.39V1080.83H6018.63L6206.6 1411.55H6465.54L6242.76 1041.59C6243.19 1041.38 6243.62 1041.17 6244.05 1040.97C6244.7 1040.65 6245.35 1040.33 6246 1040.02C6302.29 1011.87 6346.39 972.932 6378.29 923.207C6410.19 873.481 6426.14 816.718 6426.14 752.919C6426.14 689.12 6410.19 632.827 6378.29 584.039C6347.33 534.314 6304.17 495.846 6248.82 468.638C6193.46 440.491 6130.13 426.418 6058.83 426.418H5671.81ZM6051.79 872.543H5898.39V633.296H6047.57C6089.79 633.296 6123.56 644.555 6148.89 667.072C6175.16 689.589 6188.3 718.205 6188.3 752.919C6188.3 775.437 6182.2 796.078 6170 814.842C6158.75 832.668 6142.8 846.742 6122.16 857.062C6101.51 867.382 6078.06 872.543 6051.79 872.543ZM5254.43 1428.44C5181.25 1428.44 5116.52 1412.96 5060.22 1382C5003.93 1351.04 4959.83 1307.88 4927.93 1252.52C4896.03 1197.17 4880.08 1132.9 4880.08 1059.72C4880.08 986.536 4896.03 922.268 4927.93 866.913C4959.83 811.558 5003.93 768.399 5060.22 737.438C5117.45 706.477 5183.13 690.996 5257.25 690.996C5323.86 690.996 5383.91 706.946 5437.39 738.845C5490.87 770.745 5533.09 818.594 5564.05 882.393C5595.95 945.254 5611.9 1023.13 5611.9 1116.01H5108.31C5111.01 1137.14 5117.03 1156.37 5126.37 1173.71C5139.5 1198.11 5157.8 1216.87 5181.25 1230C5204.71 1242.2 5230.98 1248.3 5260.06 1248.3C5294.78 1248.3 5323.86 1240.79 5347.32 1225.78C5370.77 1209.83 5387.19 1190.13 5396.58 1166.67L5592.19 1232.82C5573.43 1277.85 5546.69 1314.91 5511.98 1344C5478.2 1373.08 5439.26 1394.66 5395.17 1408.74C5351.07 1421.87 5304.16 1428.44 5254.43 1428.44ZM5133.4 916.169C5123.5 930.042 5117.07 947.868 5114.14 969.648H5382.06C5379.13 947.868 5372.71 930.042 5362.8 916.169C5348.73 895.529 5331.37 880.517 5310.73 871.135C5291.03 861.753 5270.85 857.061 5250.21 857.061C5229.57 857.061 5208.46 861.753 5186.88 871.135C5166.24 880.517 5148.42 895.529 5133.4 916.169ZM4613.72 1324.43L4620.28 1411.55H4829.97V426.418H4610.43V790.504C4595.26 768.959 4577.44 750.802 4556.95 736.031C4517.54 706.008 4468.75 690.997 4410.58 690.997C4344.91 690.997 4288.15 706.008 4240.3 736.031C4193.39 765.116 4156.8 807.336 4130.53 862.691C4105.19 917.108 4092.53 982.784 4092.53 1059.72C4092.53 1135.71 4105.19 1201.39 4130.53 1256.74C4156.8 1312.1 4193.39 1354.79 4240.3 1384.81C4288.15 1413.9 4344.91 1428.44 4410.58 1428.44C4468.75 1428.44 4517.54 1413.9 4556.95 1384.81C4578.94 1368.45 4597.86 1348.32 4613.72 1324.43ZM4541.47 1204.67C4519.89 1218.75 4495.49 1225.78 4468.29 1225.78C4440.14 1225.78 4414.81 1218.75 4392.29 1204.67C4370.71 1190.6 4353.35 1171.37 4340.22 1146.97C4328.02 1121.64 4321.45 1092.56 4320.52 1059.72C4321.45 1026.88 4328.02 998.265 4340.22 973.871C4353.35 948.539 4370.71 928.836 4392.29 914.763C4413.87 900.689 4438.73 893.653 4466.88 893.653C4495.02 893.653 4519.89 900.689 4541.47 914.763C4563.05 928.836 4579.93 948.539 4592.13 973.871C4604.33 998.265 4610.43 1026.88 4610.43 1059.72C4610.43 1092.56 4604.33 1121.64 4592.13 1146.97C4579.93 1171.37 4563.05 1190.6 4541.47 1204.67ZM3706.87 1428.44C3632.75 1428.44 3567.55 1412.96 3511.25 1382C3454.96 1350.1 3410.4 1306.47 3377.56 1251.11C3345.66 1195.76 3329.71 1131.96 3329.71 1059.72C3329.71 987.474 3345.19 923.675 3376.15 868.32C3408.05 812.965 3452.15 769.807 3508.44 738.845C3565.67 706.946 3630.41 690.996 3702.65 690.996C3776.77 690.996 3841.98 706.946 3898.27 738.845C3955.5 769.807 3999.6 812.965 4030.56 868.32C4062.46 923.675 4078.41 987.474 4078.41 1059.72C4078.41 1131.96 4062.46 1195.76 4030.56 1251.11C3999.6 1306.47 3955.97 1350.1 3899.68 1382C3843.39 1412.96 3779.12 1428.44 3706.87 1428.44ZM3706.87 1225.78C3735.02 1225.78 3759.88 1218.75 3781.46 1204.67C3803.98 1190.6 3821.34 1171.37 3833.53 1146.97C3846.67 1121.64 3853.24 1092.56 3853.24 1059.72C3853.24 1026.88 3846.67 998.264 3833.53 973.87C3821.34 948.538 3803.98 928.835 3781.46 914.762C3758.95 900.689 3733.14 893.652 3704.06 893.652C3674.97 893.652 3649.17 900.689 3626.66 914.762C3604.14 928.835 3586.31 948.538 3573.18 973.87C3560.98 998.264 3554.88 1026.88 3554.88 1059.72C3554.88 1092.56 3560.98 1121.64 3573.18 1146.97C3586.31 1171.37 3604.14 1190.6 3626.66 1204.67C3650.11 1218.75 3676.85 1225.78 3706.87 1225.78ZM2609.77 1363.7C2684.83 1406.86 2771.14 1428.44 2868.72 1428.44C2940.96 1428.44 3007.11 1415.77 3067.15 1390.44C3127.2 1365.11 3179.27 1329.93 3223.37 1284.89C3267.46 1238.92 3300.77 1185.91 3323.29 1125.86L3110.78 1054.09C3094.83 1086.93 3075.6 1116.01 3053.08 1141.34C3031.5 1166.67 3005.7 1186.38 2975.68 1200.45C2945.65 1214.52 2911.41 1221.56 2872.94 1221.56C2820.4 1221.56 2773.49 1208.89 2732.21 1183.56C2691.86 1157.29 2659.96 1121.64 2636.51 1076.61C2613.99 1030.63 2602.73 978.092 2602.73 918.984C2602.73 859.876 2613.99 807.805 2636.51 762.77C2659.03 716.797 2690.46 681.145 2730.8 655.813C2771.14 630.481 2817.12 617.815 2868.72 617.815C2905.31 617.815 2938.62 624.382 2968.64 637.517C2999.6 650.652 3026.81 669.417 3050.26 693.811C3074.66 718.204 3093.89 746.82 3107.97 779.658L3320.47 707.884C3297.02 648.776 3263.24 596.705 3219.14 551.67C3175.99 506.635 3124.38 471.921 3064.34 447.527C3005.23 422.195 2940.02 409.529 2868.72 409.529C2771.14 409.529 2684.83 431.578 2609.77 475.674C2535.65 518.832 2477.01 578.878 2433.85 655.813C2391.63 731.809 2370.52 819.532 2370.52 918.984C2370.52 1018.44 2391.63 1106.63 2433.85 1183.56C2477.01 1259.56 2535.65 1319.6 2609.77 1363.7Z"
        fill="#FFF" fill-rule="evenodd"></path>
</svg>