<svg width="163" height="109" viewBox="0 0 163 109" fill="none" xmlns="http://www.w3.org/2000/svg">
<g clip-path="url(#clip0_22_6)">
<mask id="mask0_22_6" style="mask-type:luminance" maskUnits="userSpaceOnUse" x="0" y="0" width="163" height="109">
<path d="M163 0H0V109H163V0Z" fill="white"/>
</mask>
<g mask="url(#mask0_22_6)">
<path d="M54.696 63.6462H48.9594V69.115H54.696V63.6462Z" stroke="white" stroke-width="1.5"/>
<path d="M54.696 69.3036H48.9594V74.7725H54.696V69.3036Z" stroke="white" stroke-width="1.5"/>
<path d="M66.5649 63.6462H54.8938V74.7725H66.5649V63.6462Z" stroke="white" stroke-width="1.5"/>
<path d="M66.5649 74.9611H48.9594V91.7448H66.5649V74.9611Z" stroke="white" stroke-width="1.5"/>
<path d="M48.7615 63.6462H19.287V91.7448H48.7615V63.6462Z" stroke="white" stroke-width="1.5"/>
<path d="M66.5649 18.3867H19.287V63.4576H66.5649V18.3867Z" stroke="white" stroke-width="1.5"/>
<path d="M143.713 18.3867H66.7627V91.7448H143.713V18.3867Z" stroke="white" stroke-width="1.5"/>
<path d="M143.416 18.6696H19.5837V91.4619H143.416V18.6696Z" stroke="white" stroke-width="3"/>
<path d="M54.7949 63.7405C51.5175 63.7405 49.0583 65.9808 49.0583 69.2093C49.0583 71.4346 50.2266 73.1903 52.0255 74.0668" stroke="#FF0000" stroke-width="3"/>
<g filter="url(#filter0_d_22_6)">
<path d="M66.466 74.8668C66.466 68.6176 61.3501 63.7405 54.7949 63.7405" stroke="#FF0000" stroke-width="3"/>
</g>
<path d="M66.466 74.8668C66.466 84.4486 58.9115 91.4619 48.8604 91.4619" stroke="#FF0000" stroke-width="3"/>
<path d="M48.8604 91.4619C32.2544 91.4619 19.5837 79.3829 19.5837 63.5519" stroke="#FF0000" stroke-width="3"/>
<path d="M19.5837 63.5519C19.5837 38.3476 40.2254 18.6696 66.6638 18.6696" stroke="#FF0000" stroke-width="3"/>
<path d="M66.6638 18.6696C79.9024 18.6696 92.838 21.8839 103.802 28.9569C114.767 36.0299 122.668 46.1787 127.591 57.8945" stroke="#FF0000" stroke-width="3"/>
<path d="M57.1687 72.6038H52.0255V77.5069H57.1687V72.6038Z" stroke="white" stroke-width="3"/>
<path d="M163 75.0554H42.2973C9.28483 75.0554 0.343882 75.0554 0 75.0554" stroke="white" stroke-width="3"/>
<path d="M54.5971 110.131V94.1349V75.6769V0" stroke="white" stroke-width="3"/>
<path d="M97.0914 82.5986V78.2099H99.8699V78.6814H97.6489V80.164H99.7259V80.6355H97.6489V82.1271H99.9059V82.5986H97.0914ZM104.525 78.2099V82.5986H103.986L101.477 79.1528H101.432V82.5986H100.875V78.2099H101.414L103.932 81.6644H103.977V78.2099H104.525ZM108.788 79.5813C108.738 79.4368 108.673 79.3079 108.592 79.1936C108.513 79.0778 108.418 78.979 108.307 78.8979C108.198 78.8164 108.073 78.7542 107.934 78.7112C107.794 78.6686 107.641 78.6471 107.475 78.6471C107.202 78.6471 106.955 78.7142 106.731 78.8485C106.508 78.9827 106.33 79.1807 106.198 79.4421C106.066 79.7035 106.001 80.0241 106.001 80.4043C106.001 80.7841 106.067 81.105 106.2 81.3664C106.334 81.6278 106.515 81.8258 106.742 81.9601C106.97 82.0943 107.226 82.1615 107.511 82.1615C107.775 82.1615 108.007 82.1079 108.208 82.0008C108.41 81.8922 108.568 81.7394 108.68 81.5422C108.794 81.3434 108.851 81.1099 108.851 80.8414L109.022 80.8757H107.637V80.4043H109.39V80.8757C109.39 81.237 109.309 81.5512 109.147 81.8186C108.987 82.0857 108.765 82.2927 108.482 82.4402C108.2 82.5858 107.877 82.6586 107.511 82.6586C107.103 82.6586 106.745 82.5673 106.437 82.3844C106.129 82.2014 105.889 81.9416 105.717 81.6044C105.546 81.2672 105.461 80.867 105.461 80.4043C105.461 80.0569 105.51 79.745 105.607 79.4678C105.706 79.189 105.846 78.9518 106.025 78.7561C106.205 78.5607 106.418 78.4106 106.664 78.3061C106.909 78.202 107.18 78.15 107.475 78.15C107.718 78.15 107.944 78.1847 108.154 78.2548C108.365 78.3235 108.553 78.4211 108.718 78.5482C108.884 78.6742 109.023 78.8247 109.134 79.0005C109.245 79.1747 109.321 79.3686 109.364 79.5813H108.788ZM110.903 78.2099V82.5986H110.345V78.2099H110.903ZM115.671 78.2099V82.5986H115.131L112.623 79.1528H112.578V82.5986H112.02V78.2099H112.56L115.078 81.6644H115.122V78.2099H115.671ZM116.786 82.5986V78.2099H119.565V78.6814H117.344V80.164H119.421V80.6355H117.344V82.1271H119.601V82.5986H116.786ZM120.57 82.5986V78.2099H123.348V78.6814H121.127V80.164H123.204V80.6355H121.127V82.1271H123.384V82.5986H120.57ZM124.353 82.5986V78.2099H125.908C126.268 78.2099 126.563 78.2684 126.794 78.3857C127.025 78.5011 127.196 78.6606 127.307 78.8636C127.418 79.0661 127.473 79.2969 127.473 79.5557C127.473 79.814 127.418 80.0433 127.307 80.2436C127.196 80.4435 127.026 80.6008 126.796 80.715C126.567 80.8278 126.274 80.8844 125.917 80.8844H124.659V80.4043H125.899C126.145 80.4043 126.343 80.3699 126.493 80.3013C126.644 80.2327 126.754 80.1357 126.821 80.0098C126.89 79.8826 126.924 79.7314 126.924 79.5557C126.924 79.3799 126.89 79.2264 126.821 79.0948C126.752 78.9635 126.642 78.862 126.491 78.7904C126.339 78.7176 126.139 78.6814 125.891 78.6814H124.91V82.5986H124.353ZM126.52 80.6272L127.653 82.5986H127.005L125.891 80.6272H126.52ZM128.96 78.2099V82.5986H128.402V78.2099H128.96ZM133.728 78.2099V82.5986H133.188L130.68 79.1528H130.635V82.5986H130.077V78.2099H130.617L133.134 81.6644H133.179V78.2099H133.728ZM137.991 79.5813C137.941 79.4368 137.876 79.3079 137.795 79.1936C137.715 79.0778 137.62 78.979 137.509 78.8979C137.4 78.8164 137.276 78.7542 137.136 78.7112C136.997 78.6686 136.844 78.6471 136.677 78.6471C136.405 78.6471 136.157 78.7142 135.934 78.8485C135.71 78.9827 135.533 79.1807 135.401 79.4421C135.269 79.7035 135.203 80.0241 135.203 80.4043C135.203 80.7841 135.27 81.105 135.403 81.3664C135.536 81.6278 135.717 81.8258 135.945 81.9601C136.173 82.0943 136.429 82.1615 136.713 82.1615C136.977 82.1615 137.21 82.1079 137.411 82.0008C137.613 81.8922 137.77 81.7394 137.883 81.5422C137.997 81.3434 138.053 81.1099 138.053 80.8414L138.224 80.8757H136.839V80.4043H138.593V80.8757C138.593 81.237 138.512 81.5512 138.35 81.8186C138.19 82.0857 137.968 82.2927 137.685 82.4402C137.403 82.5858 137.079 82.6586 136.713 82.6586C136.306 82.6586 135.948 82.5673 135.639 82.3844C135.332 82.2014 135.092 81.9416 134.92 81.6044C134.749 81.2672 134.663 80.867 134.663 80.4043C134.663 80.0569 134.712 79.745 134.81 79.4678C134.909 79.189 135.048 78.9518 135.228 78.7561C135.408 78.5607 135.62 78.4106 135.866 78.3061C136.112 78.202 136.382 78.15 136.677 78.15C136.92 78.15 137.147 78.1847 137.356 78.2548C137.568 78.3235 137.756 78.4211 137.921 78.5482C138.087 78.6742 138.226 78.8247 138.337 79.0005C138.448 79.1747 138.524 79.3686 138.566 79.5813H137.991Z" fill="white"/>
<path d="M97.4151 59.2488H99.4114L104.105 70.1779H104.267L108.96 59.2488H110.957V72.4152H109.392V62.4117H109.257L104.941 72.4152H103.431L99.1147 62.4117H98.9798V72.4152H97.4151V59.2488ZM114.31 72.4152V59.2488H115.982V65.7805H116.144L122.349 59.2488H124.533L118.734 65.1892L124.533 72.4152H122.51L117.709 66.295L115.982 68.1465V72.4152H114.31ZM126.698 59.2488H128.694L133.388 70.1779H133.55L138.243 59.2488H140.239V72.4152H138.675V62.4117H138.54L134.224 72.4152H132.713L128.397 62.4117H128.262V72.4152H126.698V59.2488Z" fill="white"/>
</g>
</g>
<defs>
<filter id="filter0_d_22_6" x="50.7949" y="62.2405" width="21.1711" height="20.6263" filterUnits="userSpaceOnUse" color-interpolation-filters="sRGB">
<feFlood flood-opacity="0" result="BackgroundImageFix"/>
<feColorMatrix in="SourceAlpha" type="matrix" values="0 0 0 0 0 0 0 0 0 0 0 0 0 0 0 0 0 0 127 0" result="hardAlpha"/>
<feOffset dy="4"/>
<feGaussianBlur stdDeviation="2"/>
<feComposite in2="hardAlpha" operator="out"/>
<feColorMatrix type="matrix" values="0 0 0 0 0 0 0 0 0 0 0 0 0 0 0 0 0 0 0.25 0"/>
<feBlend mode="normal" in2="BackgroundImageFix" result="effect1_dropShadow_22_6"/>
<feBlend mode="normal" in="SourceGraphic" in2="effect1_dropShadow_22_6" result="shape"/>
</filter>
<clipPath id="clip0_22_6">
<rect width="163" height="109" fill="white"/>
</clipPath>
</defs>
</svg>
