<svg width="412" height="289" viewBox="0 0 412 289" fill="none" xmlns="http://www.w3.org/2000/svg">
<g clip-path="url(#clip0_6_11)">
<rect x="123.75" y="168.75" width="14.5" height="14.5" stroke="black" stroke-width="1.5"/>
<rect x="123.75" y="183.75" width="14.5" height="14.5" stroke="white" stroke-width="1.5"/>
<rect x="138.75" y="168.75" width="29.5" height="29.5" stroke="black" stroke-width="1.5"/>
<rect x="123.75" y="198.75" width="44.5" height="44.5" stroke="black" stroke-width="1.5"/>
<rect x="48.75" y="168.75" width="74.5" height="74.5" stroke="white" stroke-width="1.5"/>
<rect x="48.75" y="48.75" width="119.5" height="119.5" stroke="white" stroke-width="1.5"/>
<rect x="168.75" y="48.75" width="194.5" height="194.5" stroke="white" stroke-width="1.5"/>
<rect x="49.5" y="49.5" width="313" height="193" stroke="white" stroke-width="3"/>
<path d="M138.5 169C130.216 169 124 174.94 124 183.5C124 189.4 126.953 194.055 131.5 196.379" stroke="#FF0000" stroke-width="3"/>
<g filter="url(#filter0_d_6_11)">
<path d="M168 198.5C168 181.931 155.069 169 138.5 169" stroke="#FF0000" stroke-width="3"/>
</g>
<path d="M168 198.5C168 223.905 148.905 242.5 123.5 242.5" stroke="#FF0000" stroke-width="3"/>
<path d="M123.5 242.5C81.5264 242.5 49.5 210.474 49.5 168.5" stroke="#FF0000" stroke-width="3"/>
<path d="M49.5 168.5C49.5 101.674 101.674 49.5 168.5 49.5" stroke="#FF0000" stroke-width="3"/>
<path d="M168.5 49.5C201.962 49.5 234.658 58.0225 262.371 76.7756C290.085 95.5287 310.057 122.437 322.5 153.5" stroke="#FF0000" stroke-width="3"/>
<rect x="131.5" y="192.5" width="13" height="13" stroke="white" stroke-width="3"/>
<path d="M412 199L106.911 199C23.4684 199 0.869198 199 0 199" stroke="white" stroke-width="3"/>
<path d="M138 292L138 249.587L138 200.648L138 0" stroke="white" stroke-width="3"/>
<path d="M246.409 218V206.364H253.432V207.614H247.818V211.545H253.068V212.795H247.818V216.75H253.523V218H246.409ZM265.199 206.364V218H263.835L257.494 208.864H257.381V218H255.972V206.364H257.335L263.699 215.523H263.812V206.364H265.199ZM275.973 210C275.848 209.617 275.683 209.275 275.479 208.972C275.278 208.665 275.037 208.403 274.757 208.188C274.481 207.972 274.166 207.807 273.814 207.693C273.462 207.58 273.075 207.523 272.655 207.523C271.965 207.523 271.339 207.701 270.774 208.057C270.21 208.413 269.761 208.938 269.428 209.631C269.094 210.324 268.928 211.174 268.928 212.182C268.928 213.189 269.096 214.04 269.433 214.733C269.77 215.426 270.227 215.951 270.803 216.307C271.378 216.663 272.026 216.841 272.746 216.841C273.412 216.841 274 216.699 274.507 216.415C275.018 216.127 275.416 215.722 275.7 215.199C275.988 214.672 276.132 214.053 276.132 213.341L276.564 213.432H273.064V212.182H277.496V213.432C277.496 214.39 277.291 215.223 276.882 215.932C276.477 216.64 275.916 217.189 275.2 217.58C274.488 217.966 273.67 218.159 272.746 218.159C271.715 218.159 270.81 217.917 270.03 217.432C269.253 216.947 268.647 216.258 268.212 215.364C267.78 214.47 267.564 213.409 267.564 212.182C267.564 211.261 267.687 210.434 267.933 209.699C268.183 208.96 268.536 208.331 268.99 207.812C269.445 207.294 269.982 206.896 270.604 206.619C271.225 206.343 271.909 206.205 272.655 206.205C273.268 206.205 273.84 206.297 274.371 206.483C274.905 206.665 275.38 206.924 275.797 207.261C276.217 207.595 276.568 207.994 276.848 208.46C277.128 208.922 277.321 209.436 277.428 210H275.973ZM281.318 206.364V218H279.909V206.364H281.318ZM293.371 206.364V218H292.007L285.666 208.864H285.553V218H284.143V206.364H285.507L291.871 215.523H291.984V206.364H293.371ZM296.19 218V206.364H303.213V207.614H297.599V211.545H302.849V212.795H297.599V216.75H303.304V218H296.19ZM305.753 218V206.364H312.776V207.614H307.162V211.545H312.412V212.795H307.162V216.75H312.866V218H305.753ZM315.315 218V206.364H319.247C320.156 206.364 320.902 206.519 321.486 206.83C322.069 207.136 322.501 207.559 322.781 208.097C323.062 208.634 323.202 209.246 323.202 209.932C323.202 210.617 323.062 211.225 322.781 211.756C322.501 212.286 322.071 212.703 321.491 213.006C320.912 213.305 320.171 213.455 319.27 213.455H316.088V212.182H319.224C319.846 212.182 320.346 212.091 320.724 211.909C321.107 211.727 321.384 211.47 321.554 211.136C321.728 210.799 321.815 210.398 321.815 209.932C321.815 209.466 321.728 209.059 321.554 208.71C321.38 208.362 321.101 208.093 320.719 207.903C320.336 207.71 319.83 207.614 319.202 207.614H316.724V218H315.315ZM320.793 212.773L323.656 218H322.02L319.202 212.773H320.793ZM326.959 206.364V218H325.55V206.364H326.959ZM339.011 206.364V218H337.648L331.307 208.864H331.193V218H329.784V206.364H331.148L337.511 215.523H337.625V206.364H339.011ZM349.786 210C349.661 209.617 349.496 209.275 349.291 208.972C349.09 208.665 348.85 208.403 348.57 208.188C348.293 207.972 347.979 207.807 347.626 207.693C347.274 207.58 346.888 207.523 346.467 207.523C345.778 207.523 345.151 207.701 344.587 208.057C344.022 208.413 343.573 208.938 343.24 209.631C342.907 210.324 342.74 211.174 342.74 212.182C342.74 213.189 342.909 214.04 343.246 214.733C343.583 215.426 344.039 215.951 344.615 216.307C345.191 216.663 345.839 216.841 346.558 216.841C347.225 216.841 347.812 216.699 348.32 216.415C348.831 216.127 349.229 215.722 349.513 215.199C349.801 214.672 349.945 214.053 349.945 213.341L350.376 213.432H346.876V212.182H351.308V213.432C351.308 214.39 351.104 215.223 350.695 215.932C350.289 216.64 349.729 217.189 349.013 217.58C348.301 217.966 347.482 218.159 346.558 218.159C345.528 218.159 344.623 217.917 343.842 217.432C343.066 216.947 342.46 216.258 342.024 215.364C341.592 214.47 341.376 213.409 341.376 212.182C341.376 211.261 341.5 210.434 341.746 209.699C341.996 208.96 342.348 208.331 342.803 207.812C343.257 207.294 343.795 206.896 344.416 206.619C345.037 206.343 345.721 206.205 346.467 206.205C347.081 206.205 347.653 206.297 348.183 206.483C348.717 206.665 349.193 206.924 349.609 207.261C350.03 207.595 350.38 207.994 350.661 208.46C350.941 208.922 351.134 209.436 351.24 210H349.786Z" fill="white"/>
<path d="M246.227 157.091H251.273L263.136 186.068H263.545L275.409 157.091H280.455V192H276.5V165.477H276.159L265.25 192H261.432L250.523 165.477H250.182V192H246.227V157.091ZM288.93 192V157.091H293.158V174.409H293.567L309.249 157.091H314.771L300.112 172.841L314.771 192H309.658L297.521 175.773L293.158 180.682V192H288.93ZM320.243 157.091H325.288L337.152 186.068H337.561L349.425 157.091H354.47V192H350.516V165.477H350.175L339.266 192H335.447L324.538 165.477H324.197V192H320.243V157.091Z" fill="white"/>
</g>
<defs>
<filter id="filter0_d_6_11" x="134.5" y="167.5" width="39" height="39" filterUnits="userSpaceOnUse" color-interpolation-filters="sRGB">
<feFlood flood-opacity="0" result="BackgroundImageFix"/>
<feColorMatrix in="SourceAlpha" type="matrix" values="0 0 0 0 0 0 0 0 0 0 0 0 0 0 0 0 0 0 127 0" result="hardAlpha"/>
<feOffset dy="4"/>
<feGaussianBlur stdDeviation="2"/>
<feComposite in2="hardAlpha" operator="out"/>
<feColorMatrix type="matrix" values="0 0 0 0 0 0 0 0 0 0 0 0 0 0 0 0 0 0 0.25 0"/>
<feBlend mode="normal" in2="BackgroundImageFix" result="effect1_dropShadow_6_11"/>
<feBlend mode="normal" in="SourceGraphic" in2="effect1_dropShadow_6_11" result="shape"/>
</filter>
<clipPath id="clip0_6_11">
<rect width="412" height="289" fill="white"/>
</clipPath>
</defs>
</svg>
